<svg width="49" height="49" viewBox="0 0 49 49" fill="none" xmlns="http://www.w3.org/2000/svg">
<path d="M8.16663 24.501V29.6953C8.16663 36.3205 8.16663 39.6333 9.97569 41.8769C10.3412 42.3301 10.7541 42.7431 11.2073 43.1086C13.4511 44.9177 16.7637 44.9177 23.3889 44.9177C24.8295 44.9177 25.5496 44.9177 26.2092 44.685C26.3464 44.6364 26.4808 44.5808 26.6121 44.518C27.2431 44.2162 27.7523 43.707 28.7709 42.6884L38.4413 33.0179C39.6216 31.8378 40.2116 31.2475 40.5226 30.4972C40.8333 29.7469 40.8333 28.9123 40.8333 27.2432V20.4177C40.8333 12.718 40.8333 8.86823 38.4413 6.47626C36.2789 4.31381 32.9249 4.10633 26.6121 4.08643M26.5416 43.8969V42.876C26.5416 37.1012 26.5416 34.2139 28.3356 32.4199C30.1297 30.626 33.017 30.626 38.7916 30.626H39.8125" stroke="#141B34" stroke-width="1.5" stroke-linecap="round" stroke-linejoin="round"/>
<path d="M24.5 12.2489H8.16663M16.3333 4.08228V20.4156" stroke="#141B34" stroke-width="1.5" stroke-linecap="round" stroke-linejoin="round"/>
</svg>
